REM DIRINDEX 1\2,1\3,1\4
REM DIRNAME folder01,folder02,folder03,folder04
TITLE ""
FILE "082 082_Lesson 8_TOEFL_3900.mp3" MP3
  TRACK 01 AUDIO
    TITLE "4:cjc151_3559"
    INDEX 01 00:00:00
  TRACK 02 AUDIO
    TITLE "0:"
    INDEX 01 00:01:34
  TRACK 03 AUDIO
    TITLE "2:cjc151_3560"
    INDEX 01 00:02:26
  TRACK 04 AUDIO
    TITLE "0:"
    INDEX 01 00:03:37
  TRACK 05 AUDIO
    TITLE "3:cjc151_3561"
    INDEX 01 00:05:16
  TRACK 06 AUDIO
    TITLE "0:"
    INDEX 01 00:09:08
  TRACK 07 AUDIO
    TITLE "2:cjc151_3562"
    INDEX 01 00:10:63
  TRACK 08 AUDIO
    TITLE "0:"
    INDEX 01 00:11:68
  TRACK 09 AUDIO
    TITLE "3:cjc151_3563"
    INDEX 01 00:13:41
  TRACK 10 AUDIO
    TITLE "0:"
    INDEX 01 00:17:41
  TRACK 11 AUDIO
    TITLE "2:cjc151_3564"
    INDEX 01 00:19:16
  TRACK 12 AUDIO
    TITLE "0:"
    INDEX 01 00:21:27
  TRACK 13 AUDIO
    TITLE "3:cjc151_3565"
    INDEX 01 00:23:06
  TRACK 14 AUDIO
    TITLE "0:"
    INDEX 01 00:26:58
  TRACK 15 AUDIO
    TITLE "2:cjc151_3566"
    INDEX 01 00:28:35
  TRACK 16 AUDIO
    TITLE "0:"
    INDEX 01 00:29:38
  TRACK 17 AUDIO
    TITLE "3:cjc151_3567"
    INDEX 01 00:31:18
  TRACK 18 AUDIO
    TITLE "0:"
    INDEX 01 00:35:19
  TRACK 19 AUDIO
    TITLE "2:cjc151_3568"
    INDEX 01 00:36:74
  TRACK 20 AUDIO
    TITLE "0:"
    INDEX 01 00:37:71
  TRACK 21 AUDIO
    TITLE "3:cjc151_3569"
    INDEX 01 00:39:51
  TRACK 22 AUDIO
    TITLE "0:"
    INDEX 01 00:43:50
  TRACK 23 AUDIO
    TITLE "2:cjc151_3570"
    INDEX 01 00:45:30
  TRACK 24 AUDIO
    TITLE "0:"
    INDEX 01 00:46:19
  TRACK 25 AUDIO
    TITLE "3:cjc151_3571"
    INDEX 01 00:47:74
  TRACK 26 AUDIO
    TITLE "0:"
    INDEX 01 00:51:50
  TRACK 27 AUDIO
    TITLE "2:cjc151_3572"
    INDEX 01 00:53:29
  TRACK 28 AUDIO
    TITLE "0:"
    INDEX 01 00:54:40
  TRACK 29 AUDIO
    TITLE "3:cjc151_3573"
    INDEX 01 00:56:18
  TRACK 30 AUDIO
    TITLE "0:"
    INDEX 01 00:59:43
  TRACK 31 AUDIO
    TITLE "2:cjc151_3574"
    INDEX 01 01:01:23
  TRACK 32 AUDIO
    TITLE "0:"
    INDEX 01 01:02:28
  TRACK 33 AUDIO
    TITLE "3:cjc151_3575"
    INDEX 01 01:04:07
  TRACK 34 AUDIO
    TITLE "0:"
    INDEX 01 01:07:47
  TRACK 35 AUDIO
    TITLE "2:cjc151_3576"
    INDEX 01 01:09:26
  TRACK 36 AUDIO
    TITLE "0:"
    INDEX 01 01:10:41
  TRACK 37 AUDIO
    TITLE "3:cjc151_3577"
    INDEX 01 01:12:23
  TRACK 38 AUDIO
    TITLE "0:"
    INDEX 01 01:17:04
  TRACK 39 AUDIO
    TITLE "2:cjc151_3578"
    INDEX 01 01:18:58
  TRACK 40 AUDIO
    TITLE "0:"
    INDEX 01 01:19:62
  TRACK 41 AUDIO
    TITLE "3:cjc151_3579"
    INDEX 01 01:21:41
  TRACK 42 AUDIO
    TITLE "0:"
    INDEX 01 01:26:09
  TRACK 43 AUDIO
    TITLE "2:cjc151_3580"
    INDEX 01 01:27:63
  TRACK 44 AUDIO
    TITLE "0:"
    INDEX 01 01:28:67
  TRACK 45 AUDIO
    TITLE "3:cjc151_3581"
    INDEX 01 01:30:42
  TRACK 46 AUDIO
    TITLE "0:"
    INDEX 01 01:34:32
  TRACK 47 AUDIO
    TITLE "2:cjc151_3582"
    INDEX 01 01:36:09
  TRACK 48 AUDIO
    TITLE "0:"
    INDEX 01 01:37:09
  TRACK 49 AUDIO
    TITLE "3:cjc151_3583"
    INDEX 01 01:38:63
  TRACK 50 AUDIO
    TITLE "0:"
    INDEX 01 01:42:30
  TRACK 51 AUDIO
    TITLE "2:cjc151_3584"
    INDEX 01 01:44:05
  TRACK 52 AUDIO
    TITLE "0:"
    INDEX 01 01:45:10
  TRACK 53 AUDIO
    TITLE "3:cjc151_3585"
    INDEX 01 01:46:65
  TRACK 54 AUDIO
    TITLE "0:"
    INDEX 01 01:50:25
  TRACK 55 AUDIO
    TITLE "2:cjc151_3586"
    INDEX 01 01:52:02
  TRACK 56 AUDIO
    TITLE "0:"
    INDEX 01 01:53:20
  TRACK 57 AUDIO
    TITLE "3:cjc151_3587"
    INDEX 01 01:54:70
  TRACK 58 AUDIO
    TITLE "0:"
    INDEX 01 01:58:46
  TRACK 59 AUDIO
    TITLE "2:cjc151_3588"
    INDEX 01 02:00:25
  TRACK 60 AUDIO
    TITLE "0:"
    INDEX 01 02:01:29
  TRACK 61 AUDIO
    TITLE "3:cjc151_3589"
    INDEX 01 02:03:08
  TRACK 62 AUDIO
    TITLE "0:"
    INDEX 01 02:06:61
  TRACK 63 AUDIO
    TITLE "2:cjc151_3590"
    INDEX 01 02:08:47
  TRACK 64 AUDIO
    TITLE "0:"
    INDEX 01 02:09:36
  TRACK 65 AUDIO
    TITLE "3:cjc151_3591"
    INDEX 01 02:11:14
  TRACK 66 AUDIO
    TITLE "0:"
    INDEX 01 02:15:00
  TRACK 67 AUDIO
    TITLE "2:cjc151_3592"
    INDEX 01 02:16:50
  TRACK 68 AUDIO
    TITLE "0:"
    INDEX 01 02:17:55
  TRACK 69 AUDIO
    TITLE "3:cjc151_3593"
    INDEX 01 02:19:33
  TRACK 70 AUDIO
    TITLE "0:"
    INDEX 01 02:22:45
  TRACK 71 AUDIO
    TITLE "2:cjc151_3594"
    INDEX 01 02:24:22
  TRACK 72 AUDIO
    TITLE "0:"
    INDEX 01 02:25:23
  TRACK 73 AUDIO
    TITLE "3:cjc151_3595"
    INDEX 01 02:27:03
  TRACK 74 AUDIO
    TITLE "0:"
    INDEX 01 02:30:23
  TRACK 75 AUDIO
    TITLE "2:cjc151_3596"
    INDEX 01 02:32:04
  TRACK 76 AUDIO
    TITLE "0:"
    INDEX 01 02:33:27
  TRACK 77 AUDIO
    TITLE "3:cjc151_3597"
    INDEX 01 02:35:06
  TRACK 78 AUDIO
    TITLE "0:"
    INDEX 01 02:38:71
  TRACK 79 AUDIO
    TITLE "2:cjc151_3598"
    INDEX 01 02:40:50
  TRACK 80 AUDIO
    TITLE "0:"
    INDEX 01 02:41:58
  TRACK 81 AUDIO
    TITLE "3:cjc151_3599"
    INDEX 01 02:43:41
  TRACK 82 AUDIO
    TITLE "0:"
    INDEX 01 02:47:17
  TRACK 83 AUDIO
    TITLE "2:cjc151_3600"
    INDEX 01 02:48:72
  TRACK 84 AUDIO
    TITLE "0:"
    INDEX 01 02:50:18
  TRACK 85 AUDIO
    TITLE "3:cjc151_3601"
    INDEX 01 02:51:68
  TRACK 86 AUDIO
    TITLE "0:"
    INDEX 01 02:56:69
  TRACK 87 AUDIO
    TITLE "2:cjc151_3602"
    INDEX 01 02:58:48
  TRACK 88 AUDIO
    TITLE "0:"
    INDEX 01 02:59:56
  TRACK 89 AUDIO
    TITLE "3:cjc151_3603"
    INDEX 01 03:01:31
  TRACK 90 AUDIO
    TITLE "0:"
    INDEX 01 03:05:07
